<svg xmlns="http://www.w3.org/2000/svg" width="23.873" height="20.528" viewBox="0 0 23.873 20.528">
  <g id="upload-outline" transform="translate(0.5 0.5)">
    <g id="upload-svgrepo-com" transform="translate(0 0)">
      <g id="Group_281" data-name="Group 281">
        <path id="Path_173" data-name="Path 173" d="M17.121,24.561a5.743,5.743,0,0,0-.985.085A6.464,6.464,0,0,0,4.642,26a5.042,5.042,0,0,0,.4,10.067h3.05v4.4a.778.778,0,0,0,.778.778H14a.778.778,0,0,0,.778-.778v-4.4h2.339a5.752,5.752,0,0,0,0-11.5ZM14,31.989a.778.778,0,0,0-.778.778v6.924H9.647V32.767a.778.778,0,0,0-.778-.778H8.18l3.257-3.257,3.257,3.257Zm3.117,2.521H14.782v-.965h1.789a.778.778,0,0,0,.55-1.328l-5.135-5.135a.778.778,0,0,0-1.1,0L5.752,32.216a.778.778,0,0,0,.55,1.328H8.091v.965H5.042a3.485,3.485,0,0,1,0-6.971c.049,0,.1,0,.146,0a.775.775,0,0,0,.786-.584,4.907,4.907,0,0,1,9.094-1.064.778.778,0,0,0,.9.385,4.2,4.2,0,1,1,1.153,8.23Z" transform="translate(0 -21.719)" fill="#494949" stroke="#f6f6f6" stroke-width="1"/>
      </g>
    </g>
  </g>
</svg>