<svg xmlns="http://www.w3.org/2000/svg" xmlns:xlink="http://www.w3.org/1999/xlink" data-name="Layer 1" viewBox="0 0 810.12 539.16" id="games-time"><defs><linearGradient id="d" x1="410.59" x2="410.59" y1="667.13" y2="153.21" gradientUnits="userSpaceOnUse"><stop offset="0" stop-color="#68e1fd"></stop><stop offset=".3" stop-color="#58a0ba"></stop><stop offset=".55" stop-color="#4c718a"></stop><stop offset=".68" stop-color="#485f77"></stop><stop offset=".69" stop-color="#475c74"></stop><stop offset=".87" stop-color="#41455e"></stop><stop offset=".99" stop-color="#3f3d56"></stop></linearGradient><linearGradient id="a" x1="759.55" x2="712.97" y1="234.65" y2="234.65" gradientUnits="userSpaceOnUse"><stop offset="0"></stop><stop offset=".99" stop-opacity="0"></stop></linearGradient><linearGradient id="h" x1="809.61" x2="754.59" y1="247.08" y2="225.55" xlink:href="#a"></linearGradient><linearGradient id="i" x1="800.98" x2="777.54" y1="296.82" y2="258.06" xlink:href="#a"></linearGradient><linearGradient id="j" x1="711.3" x2="792.59" y1="374.56" y2="374.56" xlink:href="#a"></linearGradient><linearGradient id="k" x1="396.26" x2="392.47" y1="524.17" y2="203.18" xlink:href="#a"></linearGradient><linearGradient id="l" x1="380.41" x2="397.43" y1="560.59" y2="172.49" xlink:href="#a"></linearGradient><linearGradient id="b" x1="366.8" x2="491.56" y1="329.05" y2="329.05" gradientUnits="userSpaceOnUse"><stop offset="0" stop-color="#183866"></stop><stop offset="1" stop-color="#1a7fc1"></stop></linearGradient><linearGradient id="m" x1="156.15" x2="373.57" y1="296.26" y2="296.26" xlink:href="#b"></linearGradient><linearGradient id="n" x1="427.82" x2="595.65" y1="291.94" y2="291.94" xlink:href="#b"></linearGradient><linearGradient id="g" x1="176.4" x2="355.72" y1="314.94" y2="314.94" gradientUnits="userSpaceOnUse"><stop offset="0" stop-color="#97eafd"></stop><stop offset="0" stop-color="#a8eefd"></stop><stop offset="1" stop-color="#e7faff"></stop></linearGradient><linearGradient id="o" x1="392.3" x2="392.3" y1="262.07" y2="518.48" xlink:href="#a"></linearGradient><linearGradient id="p" x1="392.3" x2="392.3" y1="338.92" y2="445.08" xlink:href="#a"></linearGradient><linearGradient id="q" x1="429.2" x2="550.06" y1="440.3" y2="440.3" xlink:href="#b"></linearGradient><linearGradient id="r" x1="203.05" x2="330.44" y1="444.79" y2="444.79" xlink:href="#b"></linearGradient><linearGradient id="s" x1="91.85" x2="100.69" y1="174.8" y2="417.43" xlink:href="#a"></linearGradient><linearGradient id="t" x1="683.64" x2="682.37" y1="233.55" y2="394.04" xlink:href="#a"></linearGradient><linearGradient id="c" x1="272.69" x2="271.33" y1="187.87" y2="246.33" gradientUnits="userSpaceOnUse"><stop offset="0" stop-color="#ecc4d7"></stop><stop offset=".42" stop-color="#efd4d1"></stop><stop offset="1" stop-color="#f2eac9"></stop></linearGradient><linearGradient id="u" x1="256.32" x2="284.36" y1="263.54" y2="263.54" xlink:href="#c"></linearGradient><linearGradient id="v" x1="508.36" x2="506.55" y1="168.86" y2="231.39" xlink:href="#c"></linearGradient><linearGradient id="w" x1="491.74" x2="519.77" y1="249.11" y2="249.11" xlink:href="#c"></linearGradient><linearGradient id="x" x1="201.79" x2="226.85" y1="351.52" y2="351.52" xlink:href="#d"></linearGradient><linearGradient id="y" x1="206.67" x2="251.77" y1="344.62" y2="344.62" xlink:href="#c"></linearGradient><linearGradient id="z" x1="304.76" x2="329.82" y1="345.73" y2="345.73" xlink:href="#d"></linearGradient><linearGradient id="A" x1="279.84" x2="324.94" y1="338.83" y2="338.83" xlink:href="#c"></linearGradient><linearGradient id="e" x1="229.09" x2="300.82" y1="343.97" y2="343.97" gradientUnits="userSpaceOnUse"><stop offset="0" stop-color="#68e1fd"></stop><stop offset=".3" stop-color="#58a0ba"></stop><stop offset=".55" stop-color="#4c718a"></stop><stop offset=".68" stop-color="#485f77"></stop><stop offset=".71" stop-color="#44516a"></stop><stop offset=".75" stop-color="#41465e"></stop><stop offset=".81" stop-color="#3f3f58"></stop><stop offset=".99" stop-color="#3f3d56"></stop></linearGradient><linearGradient id="B" x1="263.88" x2="268.86" y1="321.78" y2="361.66" xlink:href="#e"></linearGradient><linearGradient id="C" x1="221.38" x2="225.17" y1="441.55" y2="267.15" xlink:href="#a"></linearGradient><linearGradient id="D" x1="313.61" x2="317.4" y1="443.55" y2="269.16" xlink:href="#a"></linearGradient><linearGradient id="E" x1="199.8" x2="224.46" y1="494.53" y2="494.53" xlink:href="#c"></linearGradient><linearGradient id="F" x1="311.5" x2="336.58" y1="500.36" y2="500.36" xlink:href="#c"></linearGradient><linearGradient id="G" x1="233.33" x2="189.01" y1="524.91" y2="506.81" xlink:href="#a"></linearGradient><linearGradient id="H" x1="302.23" x2="356.5" y1="525.49" y2="514.64" xlink:href="#a"></linearGradient><linearGradient id="I" x1="536.86" x2="560.57" y1="505.32" y2="505.32" xlink:href="#c"></linearGradient><linearGradient id="J" x1="412.01" x2="435.72" y1="483.18" y2="483.18" xlink:href="#c"></linearGradient><linearGradient id="K" x1="529.8" x2="583.91" y1="539" y2="506.22" xlink:href="#a"></linearGradient><linearGradient id="L" x1="386.52" x2="448.95" y1="490.37" y2="512.75" xlink:href="#a"></linearGradient><linearGradient id="M" x1="728.07" x2="767.13" y1="339.12" y2="276.2" xlink:href="#a"></linearGradient><linearGradient id="N" x1="425.32" x2="495.81" y1="331.44" y2="331.44" xlink:href="#e"></linearGradient><linearGradient id="O" x1="425.32" x2="469.88" y1="339.62" y2="339.62" xlink:href="#e"></linearGradient><linearGradient id="P" x1="465.44" x2="502.9" y1="347.93" y2="347.93" xlink:href="#c"></linearGradient><linearGradient id="Q" x1="420.11" x2="433.3" y1="319.69" y2="319.69" xlink:href="#c"></linearGradient><linearGradient id="f" x1="431.98" x2="334.09" y1="259.54" y2="384.61" gradientUnits="userSpaceOnUse"><stop offset="0" stop-color="#68e1fd"></stop><stop offset=".08" stop-color="#84e6fd"></stop><stop offset=".21" stop-color="#a9eefe"></stop><stop offset=".35" stop-color="#c8f4fe"></stop><stop offset=".49" stop-color="#e0f9ff"></stop><stop offset=".64" stop-color="#f2fcff"></stop><stop offset=".8" stop-color="#fcfeff"></stop><stop offset="1" stop-color="#fff"></stop></linearGradient><linearGradient id="R" x1="517.25" x2="534.02" y1="287.45" y2="443.79" xlink:href="#f"></linearGradient><linearGradient id="S" x1="429.16" x2="452.69" y1="310.04" y2="310.04" xlink:href="#c"></linearGradient><linearGradient id="T" x1="438.02" x2="448.1" y1="319.98" y2="319.02" xlink:href="#e"></linearGradient><linearGradient id="U" x1="440.85" x2="450.94" y1="313.41" y2="312.45" xlink:href="#e"></linearGradient><linearGradient id="V" x1="446.8" x2="456.88" y1="315.02" y2="314.06" xlink:href="#e"></linearGradient><linearGradient id="W" x1="445.01" x2="455.09" y1="319.98" y2="319.02" xlink:href="#e"></linearGradient><linearGradient id="X" x1="248.68" x2="439.3" y1="453.96" y2="453.96" xlink:href="#g"></linearGradient></defs><path fill="#68e1fd" d="M42.5 204.35c20.41-25.71 47.12-46.33 64.73-74 9.21-14.47 15.81-30.68 26.39-44.14 17.8-22.54 45.92-35.47 74.42-38.85s57.49 2.07 84.75 11.14c9.5 3.16 19 6.8 28.94 7.9 18.39 2 36.52-4.69 53.64-11.72 73.08-30.06 150.69-68.89 227.28-49.44 55.89 14.19 99.25 57 139.69 98.14 24.45 24.85 49.66 50.92 60.69 84 9.91 29.71 7.3 61.94 4.59 93.14l-11.34 130.47a26.32 26.32 0 0 1-1.79 8.77c-2.72 5.89-9.28 8.87-15.42 11-34.86 11.88-72.61 10.91-109.43 9.81l-557.51-16.69c-23.78-.71-77.23 5.51-97.63-8.64 0 0-9.78-39-12.29-55.91-8.07-54.17 6.09-111.9 40.29-154.98Z" opacity=".18"></path><path fill="url(#d)" d="M804.72 444.37a126.91 126.91 0 0 1-126.91 126.91H143.36a126.91 126.91 0 0 1-126.9-126.91Z" opacity=".21" transform="translate(-1.96 -32.12)"></path><path fill="#68e1fd" d="M707.59 251.37c-2.58-4.24-5.15-9.76-2.3-13.81 2.16-3.07 6.65-3.84 8.68-7-10.33-1-16-12.47-18.19-22.61a114.34 114.34 0 0 1 17.24-88c.9-1.3 2-2.71 3.63-2.75 1.93 0 3.19 1.93 4 3.65a498 498 0 0 1 22.6 52.52c.59 1.63 1.16 3.5.36 5a6.43 6.43 0 0 1-2.91 2.37l-11.25 5.89 17.27-.64c1.15 7.91 2.31 15.9 1.7 23.87-.37 4.77-3 10.79-7.78 10.07 3.91.13 5.42 5.07 5.87 9l6 52c.2 1.75.32 3.74-.89 5-1.05 1.09-2.72 1.22-4.23 1.29-10.32.46-15.41 2.26-21.59-6-6.68-8.85-10.33-21.97-18.21-29.85Z"></path><path fill="url(#a)" d="M709.55 283.49c-2.58-4.24-5.15-9.76-2.3-13.81 2.16-3.07 6.65-3.84 8.68-7-10.33-1-16-12.47-18.19-22.61a114.34 114.34 0 0 1 17.24-88c.9-1.3 2-2.71 3.63-2.75 1.93 0 3.19 1.93 4 3.65a498 498 0 0 1 22.6 52.52c.59 1.63 1.16 3.5.36 5a6.43 6.43 0 0 1-2.91 2.37l-11.25 5.89 17.27-.64c1.15 7.91 2.31 15.9 1.7 23.87-.37 4.77-3 10.79-7.78 10.07 3.91.13 5.42 5.07 5.87 9l6 52c.2 1.75.32 3.74-.89 5-1.05 1.09-2.72 1.22-4.23 1.29-10.32.46-15.41 2.26-21.59-6-6.68-8.85-10.33-21.97-18.21-29.85Z" transform="translate(-1.96 -32.12)"></path><path fill="#68e1fd" d="M796.89 109.46c6.21 17.17 6.32 35.9 5.5 54.14-.26 6-.67 12.16-3.3 17.56s-8 9.86-14 9.58l11.33 6c-6.74 17-13.55 34.31-15.53 52.52-.74 6.78-.81 13.67-2.54 20.26a41.39 41.39 0 0 1-12.6 20.36c-3.51 3.09-8 5.68-12.64 4.85-7.11-1.28-10.27-9.54-11.92-16.58-3.87-16.61-8.62-35.79-7.91-52.95.58-14.08 6.88-29.36 12.31-42.25a214.7 214.7 0 0 1 22.22-40.13c2.57-3.69 29.53-32.11 29.08-33.36Z"></path><path fill="url(#h)" d="M798.85 141.58c6.21 17.17 6.32 35.9 5.5 54.14-.26 6-.67 12.16-3.3 17.56s-8 9.86-14 9.58l11.33 6c-6.74 17-13.55 34.31-15.53 52.52-.74 6.78-.81 13.67-2.54 20.26a41.39 41.39 0 0 1-12.6 20.36c-3.51 3.09-8 5.68-12.64 4.85-7.11-1.28-10.27-9.54-11.92-16.58-3.87-16.61-8.62-35.79-7.91-52.95.58-14.08 6.88-29.36 12.31-42.25a214.7 214.7 0 0 1 22.22-40.13c2.57-3.69 29.53-32.11 29.08-33.36Z" transform="translate(-1.96 -32.12)"></path><path fill="#68e1fd" d="M790.67 221.94c13.37-13.21-5.81-33.84 12.85-36.07-12.63 20 9.87 53.54-12.79 60.38.63 4.94-4.78 8.15-9 10.74a47.52 47.52 0 0 0-21.41 29.95c1.33-6 .5-9.48 3.52-15.46 2.62-5.17 4-10.16 5.92-15.87a86 86 0 0 1 20.91-33.67Z"></path><path fill="url(#i)" d="M792.63 254.06c13.37-13.21-5.81-33.84 12.85-36.07-12.63 20 9.87 53.54-12.79 60.38.63 4.94-4.78 8.15-9 10.74a47.52 47.52 0 0 0-21.41 29.95c1.33-6 .5-9.48 3.52-15.46 2.62-5.17 4-10.16 5.92-15.87a86 86 0 0 1 20.91-33.67Z" transform="translate(-1.96 -32.12)"></path><path fill="#68e1fd" d="M711.3 308.58h81.29v99.94a32 32 0 0 1-32 32h-17.26a32 32 0 0 1-32-32v-99.94h-.03Z"></path><path fill="url(#j)" d="M711.3 308.58h81.29v99.94a32 32 0 0 1-32 32h-17.26a32 32 0 0 1-32-32v-99.94h-.03Z"></path><rect width="578.03" height="285.21" x="104.79" y="173.9" fill="#68e1fd" rx="62.72"></rect><rect width="578.03" height="285.21" x="104.79" y="173.9" fill="url(#k)" rx="62.72"></rect><rect width="523.7" height="280.38" x="128.44" y="195.13" fill="url(#l)" rx="59.19"></rect><path fill="url(#b)" d="M374.64 304.78c-.82 5.58 4.08 10.25 8.78 13.36a91.19 91.19 0 0 0 26.71 12c2.06.55 4.29 1.11 5.67 2.75 2.88 3.43-.06 8.81-3.85 11.2s-8.51 3.53-11.41 6.95c-4.17 4.91-3.53 13.36-9.06 16.67a15.14 15.14 0 0 1-5.09 1.6L366.8 373a1245.05 1245.05 0 0 0 124.76 1.22q-4.81-15.4-9.61-30.81c-4.44-14.23-9.4-29.27-20.84-38.82-6-5-13.28-8.07-20.6-10.7-10.5-3.78-32.51-13.66-43.7-10.42-5.91 1.73-21.25 15.08-22.17 21.31Z" opacity=".19" transform="translate(-1.96 -32.12)"></path><path fill="url(#m)" d="M222.78 208.22a10.47 10.47 0 0 0-2.91 11.45c.8 2.07 2.31 4.15 1.72 6.29-.52 1.89-2.49 2.95-4.23 3.86-23.08 12-38.57 34.47-53.11 56.05-3.76 5.58-7.64 11.51-8.06 18.22-.62 9.9 6.39 18.58 13.77 25.19s15.87 12.68 20 21.72 1.2 22.18-8.38 24.74c-1.88.5-3.9.57-5.63 1.47s-3 3.08-2.1 4.79c.85 1.54 2.93 1.79 4.7 1.84q85.43 2.71 170.91 2.71c3.93 0 8-.05 11.5-1.92a7.59 7.59 0 0 0 3.52-3.58c2.35-5.59-5-10.75-5.36-16.81-.42-6.37 6.47-10.35 10.38-15.4 5.73-7.4 5-18.23.8-26.6s-11.15-14.94-17.73-21.6a331.93 331.93 0 0 1-48-61.77c-1.45-2.41-2.93-5.15-2.33-7.91s3-4.66 3.21-7.34a7.62 7.62 0 0 0-1.58-4.84c-6.88-10.14-21.54-9.86-33.79-9.6a207.4 207.4 0 0 1-27.63-1.28c-6.08-.69-14.45-4.13-19.67.32Z" opacity=".19" transform="translate(-1.96 -32.12)"></path><path fill="url(#n)" d="M486.92 210.17c7.64-.64 15.32-.91 23-.81 7.45.1 30.34-3.59 39.93-3.34 7 .19-12.74 21.88-9 27.84 6 9.56 17.63 13.65 27 20a60.3 60.3 0 0 1 23.3 30.84c3.25 9.88 3.87 20.42 4.32 30.81.31 7.16.5 14.63-2.51 21.13-3.19 6.88-9.93 12.8-9.23 20.35.27 2.9 1.65 5.56 2.32 8.4s.37 6.26-1.95 8a9.3 9.3 0 0 1-3.52 1.38c-24.86 5.82-50.79 2-76.25.09-24.74-1.86-49.58-1.91-74.4-2a228.38 228.38 0 0 0 14.76-32.54c1-2.83 2-5.78 1.82-8.78-.27-4.11-2.68-7.73-4.86-11.23-7.83-12.53-13.7-26.75-13.84-41.52-.15-15.78 6.87-30.65 20.24-39.25 5.6-3.6 10.47-7.66 15.79-11.58 3-2.24 26.77 7.71 29.56 5.17s-9.31-22.72-6.48-22.96Z" opacity=".19" transform="translate(-1.96 -32.12)"></path><path fill="#68e1fd" d="M355.48 287.43c-.19.62-.41 1.23-.67 1.87-5.53 13.93-26.95 33.58-26.95 33.58l-.74 19.63c-21.31 12.37-120.95 2.37-120.95 2.37s-4.86-15.65-5.93-16.18-21.59-20.35-29-30.72a19.08 19.08 0 0 1-2.43-4.12c-2.83-7.64 10.85-24.51 26.3-61.09s48.9-31.47 48.9-31.47 63.73-1.22 78.73 8.43 36.92 63.75 32.74 77.7Z"></path><path fill="url(#g)" d="M353 328.53c-5.19 8.09-13.19 16.65-18.31 21.79a17.63 17.63 0 0 0-5.14 11.77 17.56 17.56 0 0 1-14.84 16.73c-26.09 4-73.15 1-94.94-.81a17.64 17.64 0 0 1-15.16-11.68c-1-2.91-2-5.33-2.41-5.53-.69-.35-12.26-11.4-21.22-21.32a17.63 17.63 0 0 1-2.61-19.93c4.91-9.48 11.6-22.07 18.65-38.77 14-33.25 43-32 48.11-31.55.63.06 1.24.08 1.87.08 8.44-.11 63.8-.48 77.65 8.43 10.53 6.77 24.48 35.42 30.42 56.74a17.37 17.37 0 0 1-2.07 14.05Z" opacity=".4" transform="translate(-1.96 -32.12)"></path><path fill="#fff" d="M461.44 195.39a41 41 0 0 1 28.51 3.3c18.52 9.47 50.61 26 59.75 31.52 13.08 7.9 31.83 56.58 32.37 64.13s1.7 17.34-10.7 19.75-65.11 16.38-65.11 16.38l-9.4-16.38-57.44 1.35-6.19-28.5s-54.29-34.27-54.81-40.75-6.38-19.31 19.83-31.13c17.31-7.77 45.79-15.38 63.19-19.67Z"></path><path fill="#68e1fd" d="m448.32 208.88-42.86 15c-4.88 1.71-10.55 4.33-11.25 9.46a12.18 12.18 0 0 0 .69 5.13c6.22 20.06 30.23 32.6 50.24 26.23q-10.52-12.24-21-24.49a196.93 196.93 0 0 1 33.41-4.53 102.21 102.21 0 0 1-6.9 42.69c-3.88 9.88-9.42 19.9-7.91 30.4a24.14 24.14 0 0 0 14.82 18.68c6.37 2.49 13.44 2.1 20.26 1.69l43.56-2.68c2.42-.15 5.16-.47 6.58-2.43a7.9 7.9 0 0 0 1.06-4.68c.16-21.45.27-35.92 6.21-56.54 4.22 21.92 4.57 15.44 9.78 26.29.74 1.54 5.77-1.52 5.16.07a6.16 6.16 0 0 1-3.2 2.9 53 53 0 0 1-12.93 4.75c.12 2.71 2.61 4.84 5.24 5.47s5.4.09 8.05-.44c4.44-.88 9-1.8 12.87-4.07s7.17-6.15 7.45-10.66c.37-5.79-4-10.67-8.07-14.8-6.09-6.18-6.74-21.59-11.74-28-9.06-11.55-43.8-31.75-56.48-37.36-14.67-6.48-28.27-3.22-43.04 1.92Z" opacity=".26"></path><path fill="#68e1fd" d="M695.94 396.98v30.53a54.44 54.44 0 0 1-54.43 54.44H139.18a54.44 54.44 0 0 1-54.44-54.44v-30.53a54.4 54.4 0 0 1 54.44-54.43h502.33a54.4 54.4 0 0 1 54.43 54.43Z"></path><path fill="url(#o)" d="M697.9 429.1v30.53a54.44 54.44 0 0 1-54.43 54.44H141.14a54.44 54.44 0 0 1-54.44-54.44V429.1a54.4 54.4 0 0 1 54.44-54.43h502.33a54.4 54.4 0 0 1 54.43 54.43Z" transform="translate(-1.96 -32.12)"></path><path fill="#68e1fd" d="M686.66 366.56a54.4 54.4 0 0 1-45.15 24H139.18a54.43 54.43 0 0 1-45.16-24 54.41 54.41 0 0 1 45.16-24h502.33a54.38 54.38 0 0 1 45.15 24Z"></path><path fill="url(#p)" d="M688.62 398.68a54.4 54.4 0 0 1-45.15 24H141.14a54.43 54.43 0 0 1-45.16-24 54.41 54.41 0 0 1 45.16-24h502.33a54.38 54.38 0 0 1 45.15 24Z" transform="translate(-1.96 -32.12)"></path><path fill="url(#q)" d="M433.31 436.45c-3.56 20.38-7 41.84-.15 61.35 1 2.93 2.93 6.23 6 6.29 2.27 0 4.14-1.76 5.48-3.59 8.27-11.25 7-26.56 6.6-40.51-.62-23.45 3.72-49.42 21.88-64.28 7.06-5.77 17.37-9.33 25.23-4.72 8.62 5.06 9.87 16.79 10.15 26.78q.69 24.12 1.37 48.26c.37 13.25 1.05 27.43 9 38.08 5.07 6.84 15 11.55 22.07 6.79 4.83-3.26 6.37-9.58 7.24-15.33a173.84 173.84 0 0 0-11.32-92.13c-4.77-11.49-11.31-23-22.07-29.25-5.84-3.38-12.56-5-19.26-5.79a92 92 0 0 0-51.81 9c-11.13 5.57-4.25 12.06-3.73 20.88.67 11.77-4.65 26.54-6.68 38.17Z" opacity=".19" transform="translate(-1.96 -32.12)"></path><path fill="url(#r)" d="M242.53 510.57c1.52-2.46 1.48-5.54 1.42-8.43a392.14 392.14 0 0 1 5-70.3c1.41-8.67 3.23-17.59 8.31-24.75S271.52 395 280 397.35c2.32.66 4.64 2 5.56 4.22a10.79 10.79 0 0 1 .57 4q.46 44-.62 88c-.14 5.66-.16 11.79 3.24 16.31 5.69 7.58 17.36 6.43 26.3 3.31 3.14-1.1 6.36-2.44 8.5-5 2.58-3.1 3.1-7.37 3.48-11.38a775.47 775.47 0 0 0 2.85-103.82c-.1-2.53-.24-5.15-1.43-7.38-2.48-4.63-8.39-5.93-13.58-6.74-20.94-3.25-42.17-6.52-63.25-4.36-4.9.51-9.94 1.36-14.05 4.07-3.87 2.55-6.57 6.5-9.06 10.4-11.63 18.21-21.28 38.13-24.4 59.51-2.53 17.31-.5 35.93 7.81 51.51 4.21 8 22.87 23 30.61 10.57Z" opacity=".19" transform="translate(-1.96 -32.12)"></path><rect width="61.37" height="61.37" x="67.07" y="306.07" fill="#68e1fd" rx="22.93"></rect><rect width="61.37" height="61.37" x="652.14" y="306.07" fill="#68e1fd" rx="22.93"></rect><rect width="61.37" height="61.37" x="67.07" y="306.07" fill="url(#s)" rx="22.93"></rect><rect width="61.37" height="61.37" x="652.14" y="306.07" fill="url(#t)" rx="22.93"></rect><path fill="url(#c)" d="M242.66 210.73s.43 43.42 23.52 46.64 32.58-22.67 35.34-42.15-21.26-51-45.43-34.82c-15.29 10.2-13.43 30.33-13.43 30.33Z" transform="translate(-1.96 -32.12)"></path><path fill="#3f3d56" d="M242.53 195.14c-1.65-9.67-3.26-20.15-.23-29.48 1.81-5.58 5.11-11.49 10.81-12.92 7.62-1.91 14.29 5 21.55 8s16.53 2.41 21.82 8.27c2.42 2.67 3.53 6.25 4.56 9.71a33.81 33.81 0 0 0-2.72-23.05 7.56 7.56 0 0 0 5.29 2.09c.1-5.89-3-11.41-6.86-15.84-8.47-9.69-21.77-15.54-34.44-13.28-16.31 2.9-19.54 15.29-25.66 27.75-6.23 12.7-2.85 24.22 5.88 38.75Z"></path><path fill="url(#u)" d="M256.32 252.7s1 23.46 13.35 21.56 14.69-21.56 14.69-21.56a25.52 25.52 0 0 1-28.04 0Z" transform="translate(-1.96 -32.12)"></path><path fill="url(#v)" d="M478.08 196.3s.42 43.42 23.52 46.64 32.57-22.67 35.34-42.15-21.27-51-45.44-34.82c-15.28 10.2-13.42 30.33-13.42 30.33Z" transform="translate(-1.96 -32.12)"></path><path fill="url(#w)" d="M491.74 238.27s1 23.46 13.35 21.56 14.68-21.56 14.68-21.56a25.5 25.5 0 0 1-28.03 0Z" transform="translate(-1.96 -32.12)"></path><path fill="url(#x)" d="M218.54 340.21s-19.78 12.09-16.35 20.59 21.71-7.05 22.51-9.56 6.97-13.94-6.16-11.03Z" transform="translate(-1.96 -32.12)"></path><path fill="url(#y)" d="M233.77 359.77s-10.14 2.32-15.23-2.48a45 45 0 0 0-11.87-7.63l14-13s13.44-7.26 20.68-7.92 10.45 3 10.45 3-6.43 7.69-10.45 6.45-9 3.79-9 3.79-2 10.21 1.49 11 10.67 5.1 10.67 5.1 4.49 4.17-10.74 1.69Z" transform="translate(-1.96 -32.12)"></path><path fill="url(#z)" d="M313.07 334.41s19.78 12.1 16.34 20.59-21.7-7-22.5-9.55-6.97-13.94 6.16-11.04Z" transform="translate(-1.96 -32.12)"></path><path fill="url(#A)" d="M297.84 354s10.13 2.32 15.23-2.48a45.23 45.23 0 0 1 11.87-7.64l-14-13s-13.44-7.26-20.68-7.92-10.45 3-10.45 3 6.43 7.69 10.45 6.45 9 3.79 9 3.79 2 10.21-1.49 11-10.67 5.1-10.67 5.1-4.49 4.16 10.74 1.7Z" transform="translate(-1.96 -32.12)"></path><path fill="url(#e)" d="M246.41 336.68s3.75 2.48 12.32 1.51 19.71-3 21.11-4.65a17.62 17.62 0 0 1 4.52-3.26s10-2.89 15 5.91-4.08 11.93-4.08 11.93-4.38 7.36-15.41 7.14-35.4 2.85-35.4 2.85-17-7.07-15.22-11.9 4.83-11.04 17.16-9.53Z" transform="translate(-1.96 -32.12)"></path><path fill="url(#B)" d="M241.25 344.62s-9.47 4.5-6 10.15 14.2 2.75 14.2 2.75 24.8-2.7 30.42-2.26 19.19-4.41 19.84-10.64-3.17-10.4-15.32-5.79-19.26 8-28.27 6.6a65.87 65.87 0 0 0-14.87-.81Z" transform="translate(-1.96 -32.12)"></path><path fill="url(#C)" d="m220.64 336.68-14-22.93S224.3 287 226 281.56s15.34 47.2 15.34 47.2-18.6 4.39-20.7 7.92Z" transform="translate(-1.96 -32.12)"></path><path fill="url(#D)" d="m313.07 334.41 14-27.43L315 281.17l-9.4 47s6.07.23 7.47 6.24Z" transform="translate(-1.96 -32.12)"></path><path fill="#3f3d56" d="M189.78 334.97s9-14.51 42-7.32 58.77 8.67 66 3.51 11.18-11.17 29.66-8.28c19.83 3.11 18.39 13.78 23.21 30.68 5.39 18.74-11.61 103.58-11.61 103.58h-29.48s.67-103.21-14.74-106.22c-9.85-1.93-29.7-2.13-40.46-2.31-6.34-.11-15.46 8.78-17.73 14.7-6.62 17.3-18.19 54.64-10.06 87.51l-28.73 2.55s-30.27-59.49-8.06-118.4Z"></path><path fill="url(#E)" d="m199.8 485.49 3.87 19.33s11.32 3.54 17-3.37 3.33-18.11 3.33-18.11Z" transform="translate(-1.96 -32.12)"></path><path fill="#68e1fd" d="m191.04 475.31 8.66-12.9s2.92 12.32 22.38-.75l.47-5.44s.93-.85 2.93 2.89 3.56 16.77 3.56 16.77-1.21 8.44-5.23 11.05c-2.77 1.8-15.44 11.38-23 17.13a16.52 16.52 0 0 1-15.14 2.57c-4.09-1.36-4.8.13-4.86-3.85-.13-8.37 3.11-20.9 10.23-27.47Z"></path><path fill="url(#F)" d="m336.58 489.26-2.77 13.87a10.19 10.19 0 0 1-12.22 8.05 11.39 11.39 0 0 1-6.28-3.81c-5.65-6.92-3.35-18.11-3.35-18.11Z" transform="translate(-1.96 -32.12)"></path><path fill="#68e1fd" d="M332.38 468.33s-2.92 12.32-22.38-.75l-.46-5.44s-.93-.86-2.94 2.89-3.56 16.85-3.56 16.85 1.21 8.44 5.23 11c3.29 2.14 33.49 31.93 45.19 16.53a9.4 9.4 0 0 0 2.07-5.76c.08-8.4-23.15-35.32-23.15-35.32Z"></path><path fill="url(#G)" d="m193 507.43 8.66-12.9s2.92 12.32 22.38-.75l.47-5.44s.93-.85 2.93 2.89S231 508 231 508s-1.21 8.44-5.23 11.05c-2.77 1.8-15.44 11.38-23 17.13a16.52 16.52 0 0 1-15.14 2.57c-4.09-1.36-4.8.13-4.86-3.85-.13-8.37 3.11-20.9 10.23-27.47Z" transform="translate(-1.96 -32.12)"></path><path fill="url(#H)" d="M334.34 500.45s-2.92 12.32-22.38-.75l-.46-5.44s-.93-.86-2.94 2.89S305 514 305 514s1.21 8.44 5.23 11c3.29 2.14 33.49 31.93 45.19 16.53a9.4 9.4 0 0 0 2.07-5.76c.08-8.4-23.15-35.32-23.15-35.32Z" transform="translate(-1.96 -32.12)"></path><path fill="url(#I)" d="M560.57 494.83 558 507.94a9.63 9.63 0 0 1-11.55 7.61 10.77 10.77 0 0 1-5.93-3.6c-5.35-6.54-3.17-17.12-3.17-17.12Z" transform="translate(-1.96 -32.12)"></path><path fill="#68e1fd" d="M556.49 473.29s-2.76 11.64-21.15-.71l-.44-5.14s-.88-.81-2.77 2.73-3.41 15.88-3.41 15.88 1.14 8 4.94 10.45c3.11 2 31.65 30.17 42.7 15.62a8.89 8.89 0 0 0 2-5.44c.08-7.95-21.87-33.39-21.87-33.39Z"></path><path fill="url(#J)" d="m412 472.7 2.63 13.11a9.62 9.62 0 0 0 11.54 7.6 10.72 10.72 0 0 0 5.93-3.6c5.35-6.54 3.17-17.11 3.17-17.11Z" transform="translate(-1.96 -32.12)"></path><path fill="#68e1fd" d="M412.17 451.16s2.76 11.64 21.15-.72l.44-5.14s.88-.81 2.77 2.73 3.41 15.85 3.41 15.85-1.14 8-4.93 10.44c-3.12 2-31.66 30.18-42.71 15.63a8.94 8.94 0 0 1-2-5.44c-.08-7.92 21.87-33.35 21.87-33.35Z"></path><path fill="url(#K)" d="M558.45 505.41s-2.76 11.64-21.15-.71l-.44-5.14s-.88-.81-2.77 2.73-3.41 15.88-3.41 15.88 1.14 8 4.94 10.45c3.11 2 31.65 30.17 42.7 15.62a8.89 8.89 0 0 0 2-5.44c.08-7.95-21.87-33.39-21.87-33.39Z" transform="translate(-1.96 -32.12)"></path><path fill="url(#L)" d="M414.13 483.28s2.76 11.64 21.15-.72l.44-5.14s.88-.81 2.77 2.73S441.9 496 441.9 496s-1.14 8-4.93 10.44c-3.12 2-31.66 30.18-42.71 15.63a8.94 8.94 0 0 1-2-5.44c-.08-7.92 21.87-33.35 21.87-33.35Z" transform="translate(-1.96 -32.12)"></path><path fill="#68e1fd" d="M706.14 285.7h92.44v27.61h-92.44z"></path><path fill="url(#M)" d="M706.44 285.7h92.44v27.61h-92.44z"></path><path fill="#3f3d56" d="M450.73 315.04s-40.05-12.32-47.12 17.94 4.34 111.45 4.34 111.45h23l4.45-6.43s4.65-67.3 6-71.43 15.71-24 28.36-24 43.19-8 53.91 27.93 10.26 94.57 10.26 94.57l26.68-2.64s6.94-75.68 3-99.35-8.92-41.6-17.78-46.55-95.1-1.49-95.1-1.49Z"></path><path fill="url(#N)" d="M480.8 348.62s-5.33 3.51-10.92 7-11.44 6.88-12.53 6.77c-2.2-.23-5.09-.34-8.08-9.88s-9.28-11.33-9.48-12.28-13.05-11.92-13.58-13.76c-.38-1.28-2.21-5.28.83-9.58a18.32 18.32 0 0 1 6.94-5.41 265.84 265.84 0 0 1 26.51-11 6 6 0 0 1 2.42 4.57c.27 3.21-4.89 11.4-5.56 14.49s5.09 11.87 5.09 11.87 4.23 2.17 6.1 2.1 21.2-5.18 23.19-4.77 12.52 6.15-10.93 19.88Z" transform="translate(-1.96 -32.12)"></path><path fill="url(#O)" d="M469.88 355.6c-5.58 3.46-11.44 6.88-12.53 6.77-2.2-.23-5.09-.34-8.08-9.88s-9.28-11.33-9.48-12.28-13.05-11.92-13.58-13.76c-.38-1.28-2.21-5.28.83-9.58a4.5 4.5 0 0 1 1.08.95s1.66 7.95 7.07 10.36 17.5 19 17.5 19-.43 7.94 3.8 9.36 13.39-.94 13.39-.94Z" transform="translate(-1.96 -32.12)"></path><path fill="url(#P)" d="M502.9 353.32S486 364 478.71 362.17a99.34 99.34 0 0 1-13.27-4.32l15.36-9.22s-1-6.64-7.23-8.42-1-7.34 4.62-6.67 10.74.86 10.74.86l4.48.83Z" transform="translate(-1.96 -32.12)"></path><path fill="url(#Q)" d="M420.27 319.63a12.05 12.05 0 0 0 4.33 11.45 4.5 4.5 0 0 0 2.12 1 2.11 2.11 0 0 0 2-.9c.73-1.26-.42-2.71-1.25-3.89-2.75-3.9 1.07-11.77 4.47-15.13a5.15 5.15 0 0 0 1.12-1.3 2.62 2.62 0 0 0-1.57-3.46c-1.44-.39-5.95 3.16-6.86 4.07a15.18 15.18 0 0 0-4.36 8.16Z" transform="translate(-1.96 -32.12)"></path><path fill="#3f3d56" d="M465.43 151.31c.3-3.45 2-6.91 1-10.23-.52-1.8-1.77-3.3-2.46-5-1.9-4.87 1-10.29 4.47-14.19 7.39-8.27 17.55-13.41 27.26-18.75 2.86-1.57 5.77-3.2 9-3.76s6.85.18 8.95 2.67a12.72 12.72 0 0 0 2.33 2.71c1.7 1.12 3.94.48 6 .42a10 10 0 0 1 8.76 4.83c1.66 2.81 2 6.54 4.64 8.48 1.64 1.21 3.87 1.43 5.48 2.68a10.47 10.47 0 0 1 2.66 3.86q2 4.13 4 8.24c3.46 7.12 7 15.16 4.55 22.69a30.76 30.76 0 0 1-3.72 7q-2.92 4.55-5.86 9.1c-2.28 3.54-5.66 7.57-9.77 6.66q.24-6.69.49-13.38c0-1.13 0-2.5-1-3.05-.82-.45-1.82-.09-2.75 0-4.42.18-5.55-6-8.45-9.34a8.25 8.25 0 0 0-7.24-2.71c-2.34.34-4.61 1.69-6.93 1.23-2.67-.54-4.29-3.23-6.62-4.63-5.6-3.35-12.37 1.59-17 6.19l-4.64 4.63c-.92.92-1.91 2-1.91 3.29-.06 9.21-11.78-3.33-11.24-9.64Z"></path><path fill="url(#f)" d="m450.19 265.74-26.83-24.67 26.83-5.51v30.18z"></path><path fill="url(#R)" d="m493.41 335.23 56.43-14.05-12.69-29.89-1.81 11.8a29.13 29.13 0 0 1-18 22.62Z" transform="translate(-1.96 -32.12)"></path><path fill="url(#S)" d="M434.19 321.7a1.85 1.85 0 0 0 .83.76 1.61 1.61 0 0 0 1.58-.56c1.92-1.85 1.77-4.89 2.37-7.49a12.24 12.24 0 0 1 4.49-7c2.52-1.93 5.85-2.92 7.67-5.52a13.82 13.82 0 0 0 1.44-3c.13-.33.22-.77-.07-1a.84.84 0 0 0-.36-.11 40.5 40.5 0 0 0-16.56 1.44c-2 .61-4.07 1.46-5.28 3.18s-1.3 4.19-.93 6.35a5.4 5.4 0 0 0 1.56 3 3.51 3.51 0 0 1 1.05 2.62 15.76 15.76 0 0 0 2.21 7.33Z" transform="translate(-1.96 -32.12)"></path><path fill="url(#T)" d="M440.9 318.08a1.42 1.42 0 0 0-1.17 1.36 1.8 1.8 0 0 0 1 1.57 2.45 2.45 0 0 0 1.9.08 1.09 1.09 0 0 0 .45-.27 1.12 1.12 0 0 0 .25-.8 2.15 2.15 0 0 0-.79-1.69 1.52 1.52 0 0 0-1.8 0" transform="translate(-1.96 -32.12)"></path><path fill="url(#U)" d="M443.73 311.51a1.43 1.43 0 0 0-1.17 1.36 1.8 1.8 0 0 0 1 1.57 2.5 2.5 0 0 0 1.9.08 1.19 1.19 0 0 0 .46-.27 1.11 1.11 0 0 0 .24-.8 2.12 2.12 0 0 0-.79-1.69 1.52 1.52 0 0 0-1.8 0" transform="translate(-1.96 -32.12)"></path><path fill="url(#V)" d="M449.68 313.12a1.42 1.42 0 0 0-1.17 1.36 1.8 1.8 0 0 0 1 1.57 2.5 2.5 0 0 0 1.9.08 1.09 1.09 0 0 0 .45-.27 1.13 1.13 0 0 0 .25-.8 2.15 2.15 0 0 0-.79-1.69 1.52 1.52 0 0 0-1.8 0" transform="translate(-1.96 -32.12)"></path><path fill="url(#W)" d="M447.89 318.08a1.41 1.41 0 0 0-1.17 1.36 1.79 1.79 0 0 0 1 1.57 2.46 2.46 0 0 0 1.9.08 1 1 0 0 0 .71-1.07 2.16 2.16 0 0 0-.8-1.69 1.5 1.5 0 0 0-1.79 0" transform="translate(-1.96 -32.12)"></path><path fill="url(#X)" d="M439.3 338.14c-20.3 12.38-35.8 54.86-43.54 77.33-3 8.67-5.19 18.65-7.31 28.9-3.38 16.38-6.57 33.44-12.36 46.9-14.21 33-35.46 44.76-44 80h-6.79a110 110 0 0 0-16.09-45.86c-15.29-25-42.88-52.89-54.2-81a80.28 80.28 0 0 1-2.76-8c-6.88-24.23-5.31-94.5 18.31-94.5-20.89 8-18.27 49-18.8 73.24a68.53 68.53 0 0 0 6 29.24c5.68 13.23 14.65 25.27 23.3 38.81 14.48 22.69 34.88 38.22 49.15 76.17l32.6-51.37c4.5-7.09 9-14.22 12.17-22 5-12.44 7.83-27.47 10.78-41.61 1.08-5.23 2.18-10.33 3.41-15.14 7.79-30.44 17.84-54 38.64-82.24 3.19-4.4 9.94-14.07 11.49-8.87Z" transform="translate(-1.96 -32.12)"></path></svg>